# xmcd
#
# Track frame offsets:
# 150
# 1799
# 23487
# 41821
# 65035
# 85014
# 112387
# 131681
# 156233
# 172637
# 208678
# 230658
#
# Disc length: 3357 seconds
#
# Revision: 0
# Processed by: cddbd v1.5.2PL0 Copyright (c) Steve Scherf et al.
# Submitted via: CoinsHifi v1.9h contact@coinshifi.com
#
DISCID=990d1b0c
DTITLE=Various Artist - rojo
DYEAR=2011
DGENRE=Latino
TTITLE0=intro-sin ti
TTITLE1=no hay condenacion
TTITLE2=me quemas
TTITLE3=no me aberguenzo
TTITLE4=quiero
TTITLE5=quiero volar
TTITLE6=desde que te conoci
TTITLE7=sin amor
TTITLE8=llueve en mi/dios manda lluvia
TTITLE9=dios manda lluvia
TTITLE10=jardin de rosas
TTITLE11=adios good bye
EXTD=
EXTT0=Live
EXTT1=Live
EXTT2=Live
EXTT3=Live
EXTT4=Live
EXTT5=Live
EXTT6=Live
EXTT7=Live
EXTT8=Live
EXTT9=Live
EXTT10=Live
EXTT11=Live
PLAYORDER=
